<?xml version="1.0" encoding="utf-8"?>
<!-- Generator: Adobe Illustrator 24.0.2, SVG Export Plug-In . SVG Version: 6.00 Build 0)  -->
<svg version="1.1" id="Capa_1" xmlns="http://www.w3.org/2000/svg" xmlns:xlink="http://www.w3.org/1999/xlink" x="0px" y="0px"
	 viewBox="0 0 564 110" style="enable-background:new 0 0 564 110;" xml:space="preserve">
<g>
	<g>
		<g>
			<g>
				<g>
					<path style="fill:#FFFFFF;" d="M161.8,83c0-2.8,2.1-4.8,4.9-4.8c1.5,0,2.8,0.5,3.7,1.5l-1.1,1.1c-0.6-0.7-1.4-1-2.5-1
						c-1.8,0-3.2,1.3-3.2,3.3c0,2,1.4,3.3,3.2,3.3c1,0,1.9-0.4,2.5-1.1l1.1,1.1c-0.9,1-2.2,1.6-3.7,1.6
						C163.9,87.8,161.8,85.8,161.8,83z"/>
					<path style="fill:#FFFFFF;" d="M179.4,87.7l-0.8-1.7h-5l-0.8,1.7h-1.8l4.2-9.4h1.7l4.2,9.4H179.4z M174.3,84.4h3.7l-1.8-4.2
						L174.3,84.4z"/>
					<path style="fill:#FFFFFF;" d="M188.8,78.3v1.5h-3.1v7.9H184v-7.9h-3.1v-1.5H188.8z"/>
					<path style="fill:#FFFFFF;" d="M196.7,87.7L196,86h-5l-0.8,1.7h-1.8l4.2-9.4h1.7l4.2,9.4H196.7z M191.6,84.4h3.7l-1.8-4.2
						L191.6,84.4z M195.5,76.3l-1.4,1.4l-1.2-0.1l1.1-1.6L195.5,76.3z"/>
					<path style="fill:#FFFFFF;" d="M200.3,87.7v-9.4h1.7v7.9h5.1v1.5H200.3z"/>
					<path style="fill:#FFFFFF;" d="M207.9,83c0-2.8,2.1-4.8,5-4.8c2.9,0,5,2,5,4.8c0,2.8-2.1,4.8-5,4.8
						C210,87.8,207.9,85.8,207.9,83z M216,83c0-2-1.3-3.3-3.1-3.3c-1.9,0-3.2,1.3-3.2,3.3c0,2,1.3,3.3,3.2,3.3
						C214.7,86.3,216,85,216,83z"/>
					<path style="fill:#FFFFFF;" d="M219.7,83c0-2.8,2.1-4.8,5-4.8c1.4,0,2.7,0.5,3.6,1.5l-1.1,1.1c-0.7-0.7-1.5-1-2.5-1
						c-1.9,0-3.2,1.3-3.2,3.3c0,2,1.3,3.3,3.3,3.3c0.9,0,1.6-0.3,2.1-0.7v-2.7h1.6v3.5c-1,1-2.3,1.5-3.8,1.5
						C221.8,87.8,219.7,85.8,219.7,83z"/>
					<path style="fill:#FFFFFF;" d="M230.5,83c0-2.8,2.1-4.8,5-4.8c2.9,0,5,2,5,4.8c0,2.8-2.1,4.8-5,4.8
						C232.6,87.8,230.5,85.8,230.5,83z M238.6,83c0-2-1.3-3.3-3.1-3.3c-1.9,0-3.2,1.3-3.2,3.3c0,2,1.3,3.3,3.2,3.3
						C237.3,86.3,238.6,85,238.6,83z"/>
					<path style="fill:#FFFFFF;" d="M247.3,87.7v-9.4h4c3.1,0,5.1,1.8,5.1,4.7c0,2.9-2,4.7-5.1,4.7H247.3z M249,86.2h2.2
						c2.1,0,3.4-1.2,3.4-3.2c0-2-1.3-3.2-3.4-3.2H249V86.2z"/>
					<path style="fill:#FFFFFF;" d="M258.7,87.7v-9.4h1.7v9.4H258.7z"/>
					<path style="fill:#FFFFFF;" d="M262.8,83c0-2.8,2.1-4.8,5-4.8c1.4,0,2.7,0.5,3.6,1.5l-1.1,1.1c-0.7-0.7-1.5-1-2.5-1
						c-1.9,0-3.2,1.3-3.2,3.3c0,2,1.3,3.3,3.3,3.3c0.9,0,1.6-0.3,2.1-0.7v-2.7h1.6v3.5c-1,1-2.3,1.5-3.8,1.5
						C264.9,87.8,262.8,85.8,262.8,83z"/>
					<path style="fill:#FFFFFF;" d="M274,87.7v-9.4h1.7v9.4H274z"/>
					<path style="fill:#FFFFFF;" d="M285.5,78.3v1.5h-3.1v7.9h-1.7v-7.9h-3.1v-1.5H285.5z"/>
					<path style="fill:#FFFFFF;" d="M293.5,87.7l-0.8-1.7h-5l-0.8,1.7h-1.8l4.2-9.4h1.7l4.2,9.4H293.5z M288.4,84.4h3.7l-1.8-4.2
						L288.4,84.4z"/>
					<path style="fill:#FFFFFF;" d="M297,87.7v-9.4h1.7v7.9h5.1v1.5H297z"/>
					<path style="fill:#FFFFFF;" d="M310,87.7v-9.4h4c3.1,0,5.1,1.8,5.1,4.7c0,2.9-2,4.7-5.1,4.7H310z M311.7,86.2h2.2
						c2.1,0,3.4-1.2,3.4-3.2c0-2-1.3-3.2-3.4-3.2h-2.1V86.2z"/>
					<path style="fill:#FFFFFF;" d="M323.1,86.2h5.8v1.5h-7.5v-9.4h7.3v1.5h-5.6v2.3h5.1v1.5h-5.1V86.2z"/>
					<path style="fill:#FFFFFF;" d="M343.4,81.6c0,2.1-1.6,3.3-4,3.3h-2v2.8h-1.7v-9.4h3.7C341.8,78.3,343.4,79.5,343.4,81.6z
						 M339.3,83.3c1.5,0,2.3-0.5,2.3-1.8c0-1.2-0.9-1.7-2.3-1.7h-2v3.5H339.3z"/>
					<path style="fill:#FFFFFF;" d="M351.2,87.7l-2.6-3.1h-1.5v3.1h-1.7v-9.4h3.9c2.5,0,4,1.1,4,3.1c0,1.6-1,2.6-2.6,3l2.7,3.3
						H351.2z M347.1,79.8V83h2.1c1.5,0,2.3-0.4,2.3-1.6c0-1.1-0.9-1.6-2.3-1.6H347.1z"/>
					<path style="fill:#FFFFFF;" d="M354.8,83c0-2.8,2.1-4.8,5-4.8c2.9,0,5,2,5,4.8c0,2.8-2.1,4.8-5,4.8
						C356.9,87.8,354.8,85.8,354.8,83z M363,83c0-2-1.3-3.3-3.1-3.3c-1.9,0-3.2,1.3-3.2,3.3c0,2,1.3,3.3,3.2,3.3
						C361.7,86.3,363,85,363,83z"/>
					<path style="fill:#FFFFFF;" d="M369.5,87.7l-4.1-9.4h1.8l3.1,7.3h0.1l3.1-7.3h1.8l-4.1,9.4H369.5z"/>
					<path style="fill:#FFFFFF;" d="M378.7,86.2h5.8v1.5H377v-9.4h7.3v1.5h-5.6v2.3h5.1v1.5h-5.1V86.2z"/>
					<path style="fill:#FFFFFF;" d="M388.4,86.2h5.8v1.5h-7.5v-9.4h7.3v1.5h-5.6v2.3h5.1v1.5h-5.1V86.2z"/>
					<path style="fill:#FFFFFF;" d="M396.4,87.7v-9.4h4c3.1,0,5.1,1.8,5.1,4.7c0,2.9-2,4.7-5.1,4.7H396.4z M398.1,86.2h2.2
						c2.1,0,3.4-1.2,3.4-3.2c0-2-1.3-3.2-3.4-3.2h-2.1V86.2z"/>
					<path style="fill:#FFFFFF;" d="M407.3,83c0-2.8,2.1-4.8,5-4.8c2.9,0,5,2,5,4.8c0,2.8-2.1,4.8-5,4.8
						C409.4,87.8,407.3,85.8,407.3,83z M415.5,83c0-2-1.3-3.3-3.1-3.3c-1.9,0-3.2,1.3-3.2,3.3c0,2,1.3,3.3,3.2,3.3
						C414.2,86.3,415.5,85,415.5,83z"/>
					<path style="fill:#FFFFFF;" d="M425.4,87.7l-2.6-3.1h-1.5v3.1h-1.7v-9.4h3.9c2.5,0,4,1.1,4,3.1c0,1.6-1,2.6-2.6,3l2.7,3.3
						H425.4z M421.3,79.8V83h2.1c1.5,0,2.3-0.4,2.3-1.6c0-1.1-0.9-1.6-2.3-1.6H421.3z"/>
					<path style="fill:#FFFFFF;" d="M431.2,86.2h5.8v1.5h-7.5v-9.4h7.3v1.5h-5.6v2.3h5.1v1.5h-5.1V86.2z"/>
					<path style="fill:#FFFFFF;" d="M438.5,86.5l0.8-1.3c1,0.7,2.1,1.1,3.2,1.1c1.2,0,1.8-0.5,1.8-1.1c0-0.8-0.6-1-2.1-1.4
						c-2.1-0.5-3.5-1.2-3.5-2.9c0-1.8,1.6-2.7,3.6-2.7c1.3,0,2.4,0.4,3.4,1.1l-0.9,1.3c-0.7-0.5-1.6-0.8-2.6-0.8
						c-1.1,0-1.7,0.4-1.7,1.2c0,0.7,0.6,1,2.1,1.4c2.3,0.5,3.5,1.1,3.5,2.8c0,1.7-1.6,2.8-3.7,2.8C440.9,87.8,439.5,87.3,438.5,86.5
						z"/>
					<path style="fill:#FFFFFF;" d="M452.3,83c0-2.8,2.1-4.8,4.9-4.8c1.5,0,2.8,0.5,3.7,1.5l-1.1,1.1c-0.6-0.7-1.4-1-2.5-1
						c-1.8,0-3.2,1.3-3.2,3.3c0,2,1.4,3.3,3.2,3.3c1,0,1.9-0.4,2.5-1.1l1.1,1.1c-0.9,1-2.2,1.6-3.7,1.6
						C454.4,87.8,452.3,85.8,452.3,83z"/>
					<path style="fill:#FFFFFF;" d="M464.5,86.2h5.8v1.5h-7.5v-9.4h7.3v1.5h-5.6v2.3h5.1v1.5h-5.1V86.2z"/>
					<path style="fill:#FFFFFF;" d="M478.3,87.7l-2.6-3.1h-1.5v3.1h-1.7v-9.4h3.9c2.5,0,4,1.1,4,3.1c0,1.6-1,2.6-2.6,3l2.7,3.3
						H478.3z M474.1,79.8V83h2.1c1.5,0,2.3-0.4,2.3-1.6c0-1.1-0.9-1.6-2.3-1.6H474.1z"/>
					<path style="fill:#FFFFFF;" d="M489.2,78.3v1.5h-3.1v7.9h-1.7v-7.9h-3.1v-1.5H489.2z"/>
					<path style="fill:#FFFFFF;" d="M491.1,87.7v-9.4h1.7v9.4H491.1z"/>
					<path style="fill:#FFFFFF;" d="M502.8,79.8h-5.6v2.7h4.9v1.5h-4.9v3.6h-1.7v-9.4h7.3V79.8z"/>
					<path style="fill:#FFFFFF;" d="M504.6,87.7v-9.4h1.7v9.4H504.6z"/>
					<path style="fill:#FFFFFF;" d="M508.7,83c0-2.8,2.1-4.8,4.9-4.8c1.5,0,2.8,0.5,3.7,1.5l-1.1,1.1c-0.6-0.7-1.4-1-2.5-1
						c-1.8,0-3.2,1.3-3.2,3.3c0,2,1.4,3.3,3.2,3.3c1,0,1.9-0.4,2.5-1.1l1.1,1.1c-0.9,1-2.2,1.6-3.7,1.6
						C510.8,87.8,508.7,85.8,508.7,83z"/>
					<path style="fill:#FFFFFF;" d="M526.3,87.7l-0.8-1.7h-5l-0.8,1.7H518l4.2-9.4h1.7l4.2,9.4H526.3z M521.2,84.4h3.7l-1.8-4.2
						L521.2,84.4z"/>
					<path style="fill:#FFFFFF;" d="M529.9,87.7v-9.4h4c3.1,0,5.1,1.8,5.1,4.7c0,2.9-2,4.7-5.1,4.7H529.9z M531.6,86.2h2.2
						c2.1,0,3.4-1.2,3.4-3.2c0-2-1.3-3.2-3.4-3.2h-2.1V86.2z"/>
					<path style="fill:#FFFFFF;" d="M540.9,83c0-2.8,2.1-4.8,5-4.8c2.9,0,5,2,5,4.8c0,2.8-2.1,4.8-5,4.8
						C543,87.8,540.9,85.8,540.9,83z M549,83c0-2-1.3-3.3-3.1-3.3c-1.9,0-3.2,1.3-3.2,3.3c0,2,1.3,3.3,3.2,3.3
						C547.7,86.3,549,85,549,83z"/>
					<path style="fill:#FFFFFF;" d="M552.4,86.5l0.8-1.3c1,0.7,2.1,1.1,3.2,1.1c1.2,0,1.8-0.5,1.8-1.1c0-0.8-0.6-1-2.1-1.4
						c-2.1-0.5-3.5-1.2-3.5-2.9c0-1.8,1.6-2.7,3.6-2.7c1.3,0,2.4,0.4,3.4,1.1l-0.9,1.3c-0.7-0.5-1.6-0.8-2.6-0.8
						c-1.1,0-1.7,0.4-1.7,1.2c0,0.7,0.6,1,2.1,1.4c2.3,0.5,3.5,1.1,3.5,2.8c0,1.7-1.6,2.8-3.7,2.8C554.8,87.8,553.4,87.3,552.4,86.5
						z"/>
				</g>
			</g>
			<g>
				<g>
					<path style="fill:#FFFFFF;" d="M161.7,46.5c0-11.5,8.8-19.9,21-19.9c12.2,0,21,8.3,21,19.7c0,11.5-8.9,19.9-21.1,19.9
						C170.5,66.2,161.7,57.9,161.7,46.5z M191.5,46.5c0-5.8-3.6-9.8-8.8-9.8c-5.2,0-8.8,4-8.8,9.7c0,5.7,3.6,9.7,8.8,9.7
						C187.8,56.1,191.5,52.2,191.5,46.5z"/>
					<path style="fill:#FFFFFF;" d="M212.1,65.5V27.4h10l15.7,19.1V27.4h11.9v38.1h-9.6L224,45.8v19.6H212.1z"/>
					<path style="fill:#FFFFFF;" d="M271,56.1h21.2v9.4h-32.8V27.4h32.3v9.4H271v5.1h18.1v8.5H271V56.1z"/>
					<path style="fill:#FFFFFF;" d="M340,65.5h-13.8l-7.4-10.8l-7.5,10.8h-13.8l14-19.7l-13.1-18.4h13.8l6.5,9.7l6.5-9.7h13.8
						L326,45.8L340,65.5z"/>
					<path style="fill:#FFFFFF;" d="M381.1,41.6c0,9-6.8,14.5-17.6,14.5h-5v9.3h-11.9V27.4h16.9C374.4,27.4,381.1,32.8,381.1,41.6z
						 M363.3,46.7c3.7,0,6-1.7,6-5c0-3.2-2.3-4.8-6-4.8h-4.7v9.8H363.3z"/>
					<path style="fill:#FFFFFF;" d="M387.5,46.5c0-11.5,8.8-19.9,21-19.9c12.2,0,21,8.3,21,19.7c0,11.5-8.9,19.9-21.1,19.9
						C396.3,66.2,387.5,57.9,387.5,46.5z M417.3,46.5c0-5.8-3.6-9.8-8.8-9.8c-5.2,0-8.8,4-8.8,9.7c0,5.7,3.6,9.7,8.8,9.7
						C413.6,56.1,417.3,52.2,417.3,46.5z"/>
					<path style="fill:#FFFFFF;" d="M463.4,65.5l-10.7-12.7h-6v12.7h-7V27.4h15.7c10.2,0,16.3,4.6,16.3,12.7
						c0,6.4-3.9,10.6-10.6,12.1l11.2,13.3H463.4z M446.7,33.6v13h8.5c6,0,9.5-1.6,9.5-6.4c0-4.6-3.5-6.6-9.5-6.6H446.7z"/>
					<path style="fill:#FFFFFF;" d="M489.1,59.3h23.4v6.2h-30.4V27.4H512v6.2h-22.9v9.1h20.5v6.2h-20.5V59.3z"/>
					<path style="fill:#FFFFFF;" d="M523.6,65.5V27.4h16c12.7,0,20.9,7.5,20.9,19c0,11.6-8.2,19.1-20.9,19.1H523.6z M530.6,59.3h8.8
						c8.5,0,13.8-4.8,13.8-12.8c0-8.1-5.3-12.8-13.8-12.8h-8.7V59.3z"/>
				</g>
			</g>
		</g>
	</g>
	<g>
		<path style="fill:#FFFFFF;" d="M107.7,89.3V62.8l-11.3-5.1l-18.4,0.1l-32.6-0.1L34,62.8l0,26.4L59.6,109l-0.5-0.4
			c1,0.9,2.3,1.4,3.8,1.4c3.2,0,5.8-2.6,5.8-5.8c0-1.9-0.9-3.6-2.3-4.7l0.1,0.1l-6.2-4.8h21.3l-0.2,0.1l-5.9,4.6l0,0
			c-1.5,1.1-2.4,2.8-2.4,4.7c0,3.2,2.6,5.8,5.8,5.8c1.3,0,2.4-0.4,3.4-1.1l0,0l0.8-0.7L107.7,89.3z M80.6,63.7
			c-0.1,1.5-1.4,2.6-2.9,2.6H61.5c-0.8,0-1.5,0.7-1.5,1.5c0,0.8,0.7,1.5,1.5,1.5l24.5,0c1.5,0,2.8,1.2,2.8,2.8
			c0,1.5-1.2,2.8-2.8,2.8l-22.5,0c-0.8,0-1.5,0.7-1.5,1.5c0,0.8,0.7,1.5,1.5,1.5l26.8,0.1c1.5,0,2.8,1.1,2.9,2.6
			c0.1,1.6-1.2,2.9-2.8,2.9l-4.6,0H61.5c-0.8,0-1.5,0.7-1.5,1.5c0,0.8,0.7,1.5,1.5,1.5l24.5,0c1.5,0,2.8,1.2,2.8,2.8
			c0,1.5-1.2,2.8-2.8,2.8l-30.1,0c-1.4,0-2.1,1.8-0.9,2.7l9.7,7.5l0.1,0.1c0.7,0.7,1.1,1.7,0.9,2.8c-0.2,1.1-1.1,1.9-2.2,2.1
			c-1,0.2-1.9-0.1-2.5-0.6L37,87.8l0-23.1l8.7-3.9h32.1C79.4,60.7,80.7,62.1,80.6,63.7z M104.8,87.7l-23.4,18.2l-0.7,0.6
			c-0.5,0.4-1.1,0.6-1.7,0.6c-1.6,0-2.8-1.3-2.8-2.8c0-0.8,0.4-1.6,0.9-2.1l0.8-0.6l8.2-6.3l0.4-0.3c3.1-0.1,5.6-2.7,5.5-5.9
			c0-0.9-0.3-1.8-0.7-2.6l0,0c2.9-0.3,5.2-2.8,5.2-5.8c0-3-2.3-5.4-5.2-5.7l0,0c0.4-0.8,0.7-1.7,0.7-2.7c0-3.2-2.6-5.7-5.7-5.7
			l-3.2,0c0.5-0.8,0.7-1.8,0.7-2.8c0-1-0.3-2-0.7-2.8l0.7,0H96l8.8,4V87.7z"/>
		<path style="fill:#FFFFFF;" d="M137.7,21.3l-0.1-1l0,0c-0.2-1.2-0.7-2.3-1.6-3.2c-2.3-2.3-6-2.3-8.2,0c-1.4,1.4-1.9,3.2-1.6,5l0,0
			l0.9,7.4l0,0.2L112,14.6l7.8,1l-0.1,0c1.8,0.3,3.6-0.3,5-1.6c2.3-2.3,2.3-6,0-8.2c-1-1-2.3-1.6-3.7-1.7l0.6,0.1L89.5,0L70.8,18.6
			l4.4,11.7l23.1,23l13,13.1l11.6,4.4l18.7-18.7L137.7,21.3z M100.4,51.1L77.6,28.4l-3.4-8.9L90.6,3.2L120.7,7
			c0.9,0.1,1.7,0.5,2.2,1.3c0.6,0.9,0.6,2.1,0,3c-0.6,0.9-1.6,1.4-2.6,1.3l-0.1,0l-12.2-1.5c-1.4-0.2-2.3,1.5-1.3,2.6L128.1,35
			c1.1,1.1,1.1,2.8,0,3.9c-1.1,1.1-2.8,1.1-3.9,0l-17.3-17.3c-0.6-0.6-1.5-0.6-2.1,0c-0.6,0.6-0.6,1.5,0,2.1L122,40.9l3.3,3.3
			c1.1,1.1,1.1,2.9-0.1,4c-1.1,1-2.9,0.8-3.9-0.2l-19-18.9c-0.6-0.6-1.5-0.6-2.1,0c-0.6,0.6-0.6,1.5,0,2.1L116.1,47
			c1.1,1.1,1.1,2.8,0,3.9c-1.1,1.1-2.8,1.1-3.9,0L94.9,33.6c-0.6-0.6-1.5-0.6-2.1,0c-0.6,0.6-0.6,1.5,0,2.1l11.4,11.4
			c1.1,1.1,1.2,2.8,0.2,3.9C103.3,52.2,101.5,52.3,100.4,51.1z M122.2,67.4l-9-3.4l-8.7-8.7l-0.5-0.5c0.9-0.3,1.8-0.7,2.5-1.5
			c0.7-0.7,1.2-1.6,1.5-2.5l2.2,2.2c2.2,2.2,5.9,2.2,8.1,0c0.7-0.7,1.2-1.5,1.4-2.4l0,0c2.3,1.9,5.6,1.7,7.7-0.4
			c2.1-2.1,2.3-5.5,0.4-7.8l0,0c0.9-0.2,1.7-0.7,2.3-1.3c2.3-2.2,2.4-5.8,0.3-8.1l0-0.5l-1.3-10.3l-0.1-1c0-0.8,0.2-1.5,0.8-2.1
			c1.1-1.1,2.9-1.1,4,0c0.5,0.5,0.7,1,0.8,1.6l0.1,0.9l3.7,29.4L122.2,67.4z"/>
		<path style="fill:#FFFFFF;" d="M0,52.1l18.7,18.7l11.6-4.4l13-13.1l23.1-23l4.4-11.7L52.1,0L20,4.1L20.7,4C19.3,4.1,18,4.7,17,5.7
			c-2.3,2.3-2.3,6,0,8.2c1.4,1.4,3.2,1.9,5,1.6l-0.1,0l7.8-1L14.5,29.7l0-0.2l0.9-7.4l0,0c0.3-1.8-0.3-3.7-1.6-5
			c-2.3-2.3-6-2.3-8.2,0c-0.9,0.9-1.4,2-1.6,3.2l0,0l-0.1,1L0,52.1z M37.2,51c-1-1.1-0.8-2.9,0.2-3.9l11.4-11.4
			c0.6-0.6,0.6-1.5,0-2.1c-0.6-0.6-1.5-0.6-2.1,0L29.4,50.9c-1.1,1.1-2.8,1.1-3.9,0c-1.1-1.1-1.1-2.8,0-3.9l15.9-15.8
			c0.6-0.6,0.6-1.5,0-2.1c-0.6-0.6-1.5-0.6-2.1,0l-19,18.9c-1.1,1.1-2.8,1.2-3.9,0.2c-1.2-1.1-1.2-2.9-0.1-4l3.3-3.3l17.2-17.2
			c0.6-0.6,0.6-1.5,0-2.1c-0.6-0.6-1.5-0.6-2.1,0L17.4,38.9c-1.1,1.1-2.8,1.1-3.9,0c-1.1-1.1-1.1-2.8,0-3.9l21.3-21.3
			c1-1,0.2-2.7-1.3-2.6l-12.2,1.5l-0.1,0c-1,0.1-2-0.4-2.6-1.3c-0.6-0.9-0.6-2.1,0-3C19.2,7.5,20.1,7,20.9,7L51,3.2l16.4,16.3
			L64,28.4L41.3,51.1C40.1,52.3,38.3,52.2,37.2,51z M3.1,51.1l3.7-29.4L7,20.7c0.1-0.6,0.4-1.2,0.8-1.6c1.1-1.1,2.9-1.1,4,0
			c0.6,0.6,0.9,1.4,0.8,2.1l-0.1,1l-1.3,10.3l0,0.5c-2.1,2.3-2,5.9,0.3,8.1c0.7,0.6,1.5,1.1,2.3,1.3l0,0c-1.9,2.3-1.7,5.7,0.4,7.8
			c2.1,2.1,5.5,2.2,7.7,0.4l0,0c0.3,0.9,0.7,1.7,1.4,2.4c2.2,2.2,5.9,2.2,8.1,0l2.2-2.2c0.3,0.9,0.7,1.7,1.5,2.5
			c0.7,0.7,1.6,1.2,2.5,1.5l-0.5,0.5L28.4,64l-9,3.4L3.1,51.1z"/>
	</g>
</g>
</svg>
